<mxfile host="app.diagrams.net" modified="2020-12-13T15:03:56.625Z" agent="5.0 (Windows NT 10.0; Win64; x64) AppleWebKit/537.36 (KHTML, like Gecko) Chrome/87.0.4280.88 Safari/537.36" etag="wQoGC9pSLNih5BZ5rHEC" version="14.0.0" type="github">
  <diagram id="C5RBs43oDa-KdzZeNtuy" name="Page-1">
    <mxGraphModel dx="2234" dy="1951" grid="1" gridSize="10" guides="1" tooltips="1" connect="1" arrows="1" fold="1" page="1" pageScale="1" pageWidth="827" pageHeight="1169" math="0" shadow="0">
      <root>
        <mxCell id="WIyWlLk6GJQsqaUBKTNV-0" />
        <mxCell id="WIyWlLk6GJQsqaUBKTNV-1" parent="WIyWlLk6GJQsqaUBKTNV-0" />
        <mxCell id="zkfFHV4jXpPFQw0GAbJ--0" value="Game" style="swimlane;fontStyle=3;align=center;verticalAlign=top;childLayout=stackLayout;horizontal=1;startSize=26;horizontalStack=0;resizeParent=1;resizeLast=0;collapsible=1;marginBottom=0;rounded=0;shadow=0;strokeWidth=1;fontSize=16;" parent="WIyWlLk6GJQsqaUBKTNV-1" vertex="1">
          <mxGeometry x="220" y="120" width="170" height="278" as="geometry">
            <mxRectangle x="230" y="140" width="160" height="26" as="alternateBounds" />
          </mxGeometry>
        </mxCell>
        <mxCell id="zkfFHV4jXpPFQw0GAbJ--1" value="- thread : Thread" style="text;align=left;verticalAlign=top;spacingLeft=4;spacingRight=4;overflow=hidden;rotatable=0;points=[[0,0.5],[1,0.5]];portConstraint=eastwest;" parent="zkfFHV4jXpPFQw0GAbJ--0" vertex="1">
          <mxGeometry y="26" width="170" height="26" as="geometry" />
        </mxCell>
        <mxCell id="zkfFHV4jXpPFQw0GAbJ--2" value="- handler : Handler" style="text;align=left;verticalAlign=top;spacingLeft=4;spacingRight=4;overflow=hidden;rotatable=0;points=[[0,0.5],[1,0.5]];portConstraint=eastwest;rounded=0;shadow=0;html=0;" parent="zkfFHV4jXpPFQw0GAbJ--0" vertex="1">
          <mxGeometry y="52" width="170" height="26" as="geometry" />
        </mxCell>
        <mxCell id="zkfFHV4jXpPFQw0GAbJ--3" value="+ Smileyface : BufferedImage" style="text;align=left;verticalAlign=top;spacingLeft=4;spacingRight=4;overflow=hidden;rotatable=0;points=[[0,0.5],[1,0.5]];portConstraint=eastwest;rounded=0;shadow=0;html=0;" parent="zkfFHV4jXpPFQw0GAbJ--0" vertex="1">
          <mxGeometry y="78" width="170" height="26" as="geometry" />
        </mxCell>
        <mxCell id="uvN29aDNM0LQ4Qjqz4Rn-0" value="&amp;nbsp;m : MainMenu" style="text;html=1;strokeColor=none;fillColor=none;align=left;verticalAlign=middle;whiteSpace=wrap;rounded=0;" vertex="1" parent="zkfFHV4jXpPFQw0GAbJ--0">
          <mxGeometry y="104" width="170" height="20" as="geometry" />
        </mxCell>
        <mxCell id="uvN29aDNM0LQ4Qjqz4Rn-8" value="- running : boolean" style="text;html=1;strokeColor=none;fillColor=none;align=left;verticalAlign=middle;whiteSpace=wrap;rounded=0;" vertex="1" parent="zkfFHV4jXpPFQw0GAbJ--0">
          <mxGeometry y="124" width="170" height="20" as="geometry" />
        </mxCell>
        <mxCell id="zkfFHV4jXpPFQw0GAbJ--4" value="" style="line;html=1;strokeWidth=1;align=left;verticalAlign=middle;spacingTop=-1;spacingLeft=3;spacingRight=3;rotatable=0;labelPosition=right;points=[];portConstraint=eastwest;" parent="zkfFHV4jXpPFQw0GAbJ--0" vertex="1">
          <mxGeometry y="144" width="170" height="8" as="geometry" />
        </mxCell>
        <mxCell id="zkfFHV4jXpPFQw0GAbJ--5" value="Game()" style="text;align=left;verticalAlign=top;spacingLeft=4;spacingRight=4;overflow=hidden;rotatable=0;points=[[0,0.5],[1,0.5]];portConstraint=eastwest;" parent="zkfFHV4jXpPFQw0GAbJ--0" vertex="1">
          <mxGeometry y="152" width="170" height="26" as="geometry" />
        </mxCell>
        <mxCell id="uvN29aDNM0LQ4Qjqz4Rn-3" value="+ start () : synchronized void" style="text;html=1;align=left;verticalAlign=middle;resizable=0;points=[];autosize=1;" vertex="1" parent="zkfFHV4jXpPFQw0GAbJ--0">
          <mxGeometry y="178" width="170" height="20" as="geometry" />
        </mxCell>
        <mxCell id="uvN29aDNM0LQ4Qjqz4Rn-4" value="+ stop () : synchroinized void" style="text;html=1;strokeColor=none;fillColor=none;align=left;verticalAlign=middle;whiteSpace=wrap;rounded=0;" vertex="1" parent="zkfFHV4jXpPFQw0GAbJ--0">
          <mxGeometry y="198" width="170" height="20" as="geometry" />
        </mxCell>
        <mxCell id="uvN29aDNM0LQ4Qjqz4Rn-5" value="+ run () : void" style="text;html=1;strokeColor=none;fillColor=none;align=left;verticalAlign=middle;whiteSpace=wrap;rounded=0;" vertex="1" parent="zkfFHV4jXpPFQw0GAbJ--0">
          <mxGeometry y="218" width="170" height="20" as="geometry" />
        </mxCell>
        <mxCell id="uvN29aDNM0LQ4Qjqz4Rn-6" value="- tick () : void" style="text;html=1;strokeColor=none;fillColor=none;align=left;verticalAlign=middle;whiteSpace=wrap;rounded=0;" vertex="1" parent="zkfFHV4jXpPFQw0GAbJ--0">
          <mxGeometry y="238" width="170" height="20" as="geometry" />
        </mxCell>
        <mxCell id="uvN29aDNM0LQ4Qjqz4Rn-7" value="- render () : void" style="text;html=1;strokeColor=none;fillColor=none;align=left;verticalAlign=middle;whiteSpace=wrap;rounded=0;" vertex="1" parent="zkfFHV4jXpPFQw0GAbJ--0">
          <mxGeometry y="258" width="170" height="20" as="geometry" />
        </mxCell>
        <mxCell id="zkfFHV4jXpPFQw0GAbJ--17" value="Handler" style="swimlane;fontStyle=1;align=center;verticalAlign=top;childLayout=stackLayout;horizontal=1;startSize=26;horizontalStack=0;resizeParent=1;resizeLast=0;collapsible=1;marginBottom=0;rounded=0;shadow=0;strokeWidth=1;" parent="WIyWlLk6GJQsqaUBKTNV-1" vertex="1">
          <mxGeometry x="500" y="90" width="220" height="160" as="geometry">
            <mxRectangle x="550" y="140" width="160" height="26" as="alternateBounds" />
          </mxGeometry>
        </mxCell>
        <mxCell id="zkfFHV4jXpPFQw0GAbJ--18" value="object : LinkedList&lt;GameObject&gt;" style="text;align=left;verticalAlign=top;spacingLeft=4;spacingRight=4;overflow=hidden;rotatable=0;points=[[0,0.5],[1,0.5]];portConstraint=eastwest;" parent="zkfFHV4jXpPFQw0GAbJ--17" vertex="1">
          <mxGeometry y="26" width="220" height="26" as="geometry" />
        </mxCell>
        <mxCell id="zkfFHV4jXpPFQw0GAbJ--23" value="" style="line;html=1;strokeWidth=1;align=left;verticalAlign=middle;spacingTop=-1;spacingLeft=3;spacingRight=3;rotatable=0;labelPosition=right;points=[];portConstraint=eastwest;" parent="zkfFHV4jXpPFQw0GAbJ--17" vertex="1">
          <mxGeometry y="52" width="220" height="8" as="geometry" />
        </mxCell>
        <mxCell id="zkfFHV4jXpPFQw0GAbJ--24" value="+ tick ()" style="text;align=left;verticalAlign=top;spacingLeft=4;spacingRight=4;overflow=hidden;rotatable=0;points=[[0,0.5],[1,0.5]];portConstraint=eastwest;" parent="zkfFHV4jXpPFQw0GAbJ--17" vertex="1">
          <mxGeometry y="60" width="220" height="26" as="geometry" />
        </mxCell>
        <mxCell id="zkfFHV4jXpPFQw0GAbJ--25" value="+ render (Graphics) :Â " style="text;align=left;verticalAlign=top;spacingLeft=4;spacingRight=4;overflow=hidden;rotatable=0;points=[[0,0.5],[1,0.5]];portConstraint=eastwest;" parent="zkfFHV4jXpPFQw0GAbJ--17" vertex="1">
          <mxGeometry y="86" width="220" height="26" as="geometry" />
        </mxCell>
        <mxCell id="uvN29aDNM0LQ4Qjqz4Rn-10" value="+ addObject(GameObject) : void" style="text;html=1;strokeColor=none;fillColor=none;align=left;verticalAlign=middle;whiteSpace=wrap;rounded=0;" vertex="1" parent="zkfFHV4jXpPFQw0GAbJ--17">
          <mxGeometry y="112" width="220" height="20" as="geometry" />
        </mxCell>
        <mxCell id="uvN29aDNM0LQ4Qjqz4Rn-11" value="+ removeObject(GameObject) : void" style="text;html=1;strokeColor=none;fillColor=none;align=left;verticalAlign=middle;whiteSpace=wrap;rounded=0;" vertex="1" parent="zkfFHV4jXpPFQw0GAbJ--17">
          <mxGeometry y="132" width="220" height="20" as="geometry" />
        </mxCell>
        <mxCell id="uvN29aDNM0LQ4Qjqz4Rn-12" value="&lt;&lt;abstract&gt;&gt; GameObject" style="swimlane;fontStyle=1;align=center;verticalAlign=top;childLayout=stackLayout;horizontal=1;startSize=26;horizontalStack=0;resizeParent=1;resizeParentMax=0;resizeLast=0;collapsible=1;marginBottom=0;" vertex="1" parent="WIyWlLk6GJQsqaUBKTNV-1">
          <mxGeometry x="710" y="350" width="295" height="242" as="geometry" />
        </mxCell>
        <mxCell id="uvN29aDNM0LQ4Qjqz4Rn-13" value="# x,y : int" style="text;strokeColor=none;fillColor=none;align=left;verticalAlign=top;spacingLeft=4;spacingRight=4;overflow=hidden;rotatable=0;points=[[0,0.5],[1,0.5]];portConstraint=eastwest;" vertex="1" parent="uvN29aDNM0LQ4Qjqz4Rn-12">
          <mxGeometry y="26" width="295" height="26" as="geometry" />
        </mxCell>
        <mxCell id="uvN29aDNM0LQ4Qjqz4Rn-16" value="# id: ID" style="text;strokeColor=none;fillColor=none;align=left;verticalAlign=top;spacingLeft=4;spacingRight=4;overflow=hidden;rotatable=0;points=[[0,0.5],[1,0.5]];portConstraint=eastwest;" vertex="1" parent="uvN29aDNM0LQ4Qjqz4Rn-12">
          <mxGeometry y="52" width="295" height="26" as="geometry" />
        </mxCell>
        <mxCell id="uvN29aDNM0LQ4Qjqz4Rn-17" value="# velX,velY : int" style="text;strokeColor=none;fillColor=none;align=left;verticalAlign=top;spacingLeft=4;spacingRight=4;overflow=hidden;rotatable=0;points=[[0,0.5],[1,0.5]];portConstraint=eastwest;" vertex="1" parent="uvN29aDNM0LQ4Qjqz4Rn-12">
          <mxGeometry y="78" width="295" height="26" as="geometry" />
        </mxCell>
        <mxCell id="uvN29aDNM0LQ4Qjqz4Rn-14" value="" style="line;strokeWidth=1;fillColor=none;align=left;verticalAlign=middle;spacingTop=-1;spacingLeft=3;spacingRight=3;rotatable=0;labelPosition=right;points=[];portConstraint=eastwest;" vertex="1" parent="uvN29aDNM0LQ4Qjqz4Rn-12">
          <mxGeometry y="104" width="295" height="8" as="geometry" />
        </mxCell>
        <mxCell id="uvN29aDNM0LQ4Qjqz4Rn-15" value="+ GameObject(x,y,id)" style="text;strokeColor=none;fillColor=none;align=left;verticalAlign=top;spacingLeft=4;spacingRight=4;overflow=hidden;rotatable=0;points=[[0,0.5],[1,0.5]];portConstraint=eastwest;" vertex="1" parent="uvN29aDNM0LQ4Qjqz4Rn-12">
          <mxGeometry y="112" width="295" height="26" as="geometry" />
        </mxCell>
        <mxCell id="uvN29aDNM0LQ4Qjqz4Rn-19" value="+ tick() : void &lt;&lt;abstract&gt;&gt;" style="text;strokeColor=none;fillColor=none;align=left;verticalAlign=top;spacingLeft=4;spacingRight=4;overflow=hidden;rotatable=0;points=[[0,0.5],[1,0.5]];portConstraint=eastwest;" vertex="1" parent="uvN29aDNM0LQ4Qjqz4Rn-12">
          <mxGeometry y="138" width="295" height="26" as="geometry" />
        </mxCell>
        <mxCell id="uvN29aDNM0LQ4Qjqz4Rn-20" value="+ render(Graphics) : void &lt;&lt;abstract&gt;&gt;" style="text;strokeColor=none;fillColor=none;align=left;verticalAlign=top;spacingLeft=4;spacingRight=4;overflow=hidden;rotatable=0;points=[[0,0.5],[1,0.5]];portConstraint=eastwest;" vertex="1" parent="uvN29aDNM0LQ4Qjqz4Rn-12">
          <mxGeometry y="164" width="295" height="26" as="geometry" />
        </mxCell>
        <mxCell id="uvN29aDNM0LQ4Qjqz4Rn-21" value="+ getBounds : Rectangle &lt;&lt;abstract&gt;&gt;" style="text;strokeColor=none;fillColor=none;align=left;verticalAlign=top;spacingLeft=4;spacingRight=4;overflow=hidden;rotatable=0;points=[[0,0.5],[1,0.5]];portConstraint=eastwest;" vertex="1" parent="uvN29aDNM0LQ4Qjqz4Rn-12">
          <mxGeometry y="190" width="295" height="26" as="geometry" />
        </mxCell>
        <mxCell id="uvN29aDNM0LQ4Qjqz4Rn-22" value="+ getters/setters till alla attribut (utan restrictions)" style="text;strokeColor=none;fillColor=none;align=left;verticalAlign=top;spacingLeft=4;spacingRight=4;overflow=hidden;rotatable=0;points=[[0,0.5],[1,0.5]];portConstraint=eastwest;fontStyle=1" vertex="1" parent="uvN29aDNM0LQ4Qjqz4Rn-12">
          <mxGeometry y="216" width="295" height="26" as="geometry" />
        </mxCell>
        <mxCell id="uvN29aDNM0LQ4Qjqz4Rn-23" value="&amp;lt;&amp;lt;enumeration&amp;gt;&amp;gt;&lt;br&gt;&lt;b&gt;ID&lt;/b&gt;" style="swimlane;fontStyle=0;align=center;verticalAlign=top;childLayout=stackLayout;horizontal=1;startSize=40;horizontalStack=0;resizeParent=1;resizeParentMax=0;resizeLast=0;collapsible=0;marginBottom=0;html=1;" vertex="1" parent="WIyWlLk6GJQsqaUBKTNV-1">
          <mxGeometry x="550" y="437" width="140" height="148" as="geometry" />
        </mxCell>
        <mxCell id="uvN29aDNM0LQ4Qjqz4Rn-24" value="player()" style="text;html=1;strokeColor=none;fillColor=none;align=left;verticalAlign=middle;spacingLeft=4;spacingRight=4;overflow=hidden;rotatable=0;points=[[0,0.5],[1,0.5]];portConstraint=eastwest;" vertex="1" parent="uvN29aDNM0LQ4Qjqz4Rn-23">
          <mxGeometry y="40" width="140" height="30" as="geometry" />
        </mxCell>
        <mxCell id="uvN29aDNM0LQ4Qjqz4Rn-25" value="HUD()" style="text;strokeColor=none;fillColor=none;align=left;verticalAlign=top;spacingLeft=4;spacingRight=4;overflow=hidden;rotatable=0;points=[[0,0.5],[1,0.5]];portConstraint=eastwest;" vertex="1" parent="uvN29aDNM0LQ4Qjqz4Rn-23">
          <mxGeometry y="70" width="140" height="26" as="geometry" />
        </mxCell>
        <mxCell id="uvN29aDNM0LQ4Qjqz4Rn-26" value="platform1-11()" style="text;strokeColor=none;fillColor=none;align=left;verticalAlign=top;spacingLeft=4;spacingRight=4;overflow=hidden;rotatable=0;points=[[0,0.5],[1,0.5]];portConstraint=eastwest;" vertex="1" parent="uvN29aDNM0LQ4Qjqz4Rn-23">
          <mxGeometry y="96" width="140" height="26" as="geometry" />
        </mxCell>
        <mxCell id="uvN29aDNM0LQ4Qjqz4Rn-27" value="ContinousPlatform()" style="text;strokeColor=none;fillColor=none;align=left;verticalAlign=top;spacingLeft=4;spacingRight=4;overflow=hidden;rotatable=0;points=[[0,0.5],[1,0.5]];portConstraint=eastwest;" vertex="1" parent="uvN29aDNM0LQ4Qjqz4Rn-23">
          <mxGeometry y="122" width="140" height="26" as="geometry" />
        </mxCell>
        <mxCell id="uvN29aDNM0LQ4Qjqz4Rn-28" value="Extends" style="endArrow=block;endSize=16;endFill=0;html=1;exitX=0.155;exitY=0.001;exitDx=0;exitDy=0;exitPerimeter=0;" edge="1" parent="WIyWlLk6GJQsqaUBKTNV-1" source="zkfFHV4jXpPFQw0GAbJ--0" target="uvN29aDNM0LQ4Qjqz4Rn-29">
          <mxGeometry width="160" relative="1" as="geometry">
            <mxPoint x="248" y="116" as="sourcePoint" />
            <mxPoint x="305" y="20" as="targetPoint" />
          </mxGeometry>
        </mxCell>
        <mxCell id="uvN29aDNM0LQ4Qjqz4Rn-29" value="Canvas" style="html=1;" vertex="1" parent="WIyWlLk6GJQsqaUBKTNV-1">
          <mxGeometry x="30" y="-110" width="110" height="50" as="geometry" />
        </mxCell>
        <mxCell id="uvN29aDNM0LQ4Qjqz4Rn-30" value="Â«interfaceÂ»&lt;br&gt;&lt;b&gt;Runnable&lt;/b&gt;" style="html=1;align=left;" vertex="1" parent="WIyWlLk6GJQsqaUBKTNV-1">
          <mxGeometry x="280" y="-60" width="110" height="50" as="geometry" />
        </mxCell>
        <mxCell id="uvN29aDNM0LQ4Qjqz4Rn-31" value="" style="endArrow=block;dashed=1;endFill=0;endSize=12;html=1;entryX=0.5;entryY=1;entryDx=0;entryDy=0;exitX=0.702;exitY=0.004;exitDx=0;exitDy=0;exitPerimeter=0;" edge="1" parent="WIyWlLk6GJQsqaUBKTNV-1" source="zkfFHV4jXpPFQw0GAbJ--0" target="uvN29aDNM0LQ4Qjqz4Rn-30">
          <mxGeometry width="160" relative="1" as="geometry">
            <mxPoint x="80" y="60" as="sourcePoint" />
            <mxPoint x="240" y="60" as="targetPoint" />
          </mxGeometry>
        </mxCell>
        <mxCell id="uvN29aDNM0LQ4Qjqz4Rn-32" value="" style="endArrow=open;endFill=1;endSize=12;html=1;entryX=0.428;entryY=-0.004;entryDx=0;entryDy=0;entryPerimeter=0;exitX=1;exitY=0.5;exitDx=0;exitDy=0;" edge="1" parent="WIyWlLk6GJQsqaUBKTNV-1" source="zkfFHV4jXpPFQw0GAbJ--18" target="uvN29aDNM0LQ4Qjqz4Rn-12">
          <mxGeometry width="160" relative="1" as="geometry">
            <mxPoint x="680" y="280" as="sourcePoint" />
            <mxPoint x="690" y="320" as="targetPoint" />
            <Array as="points">
              <mxPoint x="836" y="129" />
              <mxPoint x="836" y="189" />
            </Array>
          </mxGeometry>
        </mxCell>
        <mxCell id="uvN29aDNM0LQ4Qjqz4Rn-34" value="" style="endArrow=open;endFill=1;endSize=12;html=1;exitX=-0.002;exitY=0.232;exitDx=0;exitDy=0;entryX=0.5;entryY=0;entryDx=0;entryDy=0;exitPerimeter=0;" edge="1" parent="WIyWlLk6GJQsqaUBKTNV-1" source="uvN29aDNM0LQ4Qjqz4Rn-16" target="uvN29aDNM0LQ4Qjqz4Rn-23">
          <mxGeometry width="160" relative="1" as="geometry">
            <mxPoint x="410" y="580" as="sourcePoint" />
            <mxPoint x="570" y="580" as="targetPoint" />
            <Array as="points">
              <mxPoint x="620" y="410" />
            </Array>
          </mxGeometry>
        </mxCell>
        <mxCell id="uvN29aDNM0LQ4Qjqz4Rn-35" value="MainMenu" style="swimlane;fontStyle=1;align=center;verticalAlign=top;childLayout=stackLayout;horizontal=1;startSize=26;horizontalStack=0;resizeParent=1;resizeParentMax=0;resizeLast=0;collapsible=1;marginBottom=0;" vertex="1" parent="WIyWlLk6GJQsqaUBKTNV-1">
          <mxGeometry x="-260" y="146" width="200" height="78" as="geometry" />
        </mxCell>
        <mxCell id="uvN29aDNM0LQ4Qjqz4Rn-40" value="+ paintComponent(Graphics) : void" style="text;strokeColor=none;fillColor=none;align=left;verticalAlign=top;spacingLeft=4;spacingRight=4;overflow=hidden;rotatable=0;points=[[0,0.5],[1,0.5]];portConstraint=eastwest;" vertex="1" parent="uvN29aDNM0LQ4Qjqz4Rn-35">
          <mxGeometry y="26" width="200" height="26" as="geometry" />
        </mxCell>
        <mxCell id="uvN29aDNM0LQ4Qjqz4Rn-41" value="+ Start() : Boolean" style="text;strokeColor=none;fillColor=none;align=left;verticalAlign=top;spacingLeft=4;spacingRight=4;overflow=hidden;rotatable=0;points=[[0,0.5],[1,0.5]];portConstraint=eastwest;" vertex="1" parent="uvN29aDNM0LQ4Qjqz4Rn-35">
          <mxGeometry y="52" width="200" height="26" as="geometry" />
        </mxCell>
        <mxCell id="uvN29aDNM0LQ4Qjqz4Rn-39" value="Extends" style="endArrow=block;endSize=16;endFill=0;html=1;entryX=0.25;entryY=1;entryDx=0;entryDy=0;exitX=0.5;exitY=0;exitDx=0;exitDy=0;" edge="1" parent="WIyWlLk6GJQsqaUBKTNV-1" source="uvN29aDNM0LQ4Qjqz4Rn-35" target="uvN29aDNM0LQ4Qjqz4Rn-29">
          <mxGeometry x="-0.0534" y="2" width="160" relative="1" as="geometry">
            <mxPoint x="60" y="310" as="sourcePoint" />
            <mxPoint x="220" y="160" as="targetPoint" />
            <Array as="points">
              <mxPoint x="-160" />
              <mxPoint x="58" />
            </Array>
            <mxPoint x="1" as="offset" />
          </mxGeometry>
        </mxCell>
        <mxCell id="uvN29aDNM0LQ4Qjqz4Rn-43" value="platform 1 - 9" style="swimlane;fontStyle=1;align=center;verticalAlign=top;childLayout=stackLayout;horizontal=1;startSize=26;horizontalStack=0;resizeParent=1;resizeParentMax=0;resizeLast=0;collapsible=1;marginBottom=0;" vertex="1" parent="WIyWlLk6GJQsqaUBKTNV-1">
          <mxGeometry x="740" y="764" width="160" height="130" as="geometry" />
        </mxCell>
        <mxCell id="uvN29aDNM0LQ4Qjqz4Rn-55" value="+ platform1(x,y,ID)" style="text;strokeColor=none;fillColor=none;align=left;verticalAlign=top;spacingLeft=4;spacingRight=4;overflow=hidden;rotatable=0;points=[[0,0.5],[1,0.5]];portConstraint=eastwest;" vertex="1" parent="uvN29aDNM0LQ4Qjqz4Rn-43">
          <mxGeometry y="26" width="160" height="26" as="geometry" />
        </mxCell>
        <mxCell id="uvN29aDNM0LQ4Qjqz4Rn-56" value="+ tick() : void" style="text;strokeColor=none;fillColor=none;align=left;verticalAlign=top;spacingLeft=4;spacingRight=4;overflow=hidden;rotatable=0;points=[[0,0.5],[1,0.5]];portConstraint=eastwest;" vertex="1" parent="uvN29aDNM0LQ4Qjqz4Rn-43">
          <mxGeometry y="52" width="160" height="26" as="geometry" />
        </mxCell>
        <mxCell id="uvN29aDNM0LQ4Qjqz4Rn-58" value="+ item: attribute" style="text;strokeColor=none;fillColor=none;align=left;verticalAlign=top;spacingLeft=4;spacingRight=4;overflow=hidden;rotatable=0;points=[[0,0.5],[1,0.5]];portConstraint=eastwest;" vertex="1" parent="uvN29aDNM0LQ4Qjqz4Rn-43">
          <mxGeometry y="78" width="160" height="26" as="geometry" />
        </mxCell>
        <mxCell id="uvN29aDNM0LQ4Qjqz4Rn-57" value="+ getBounds() : Rectangle" style="text;strokeColor=none;fillColor=none;align=left;verticalAlign=top;spacingLeft=4;spacingRight=4;overflow=hidden;rotatable=0;points=[[0,0.5],[1,0.5]];portConstraint=eastwest;" vertex="1" parent="uvN29aDNM0LQ4Qjqz4Rn-43">
          <mxGeometry y="104" width="160" height="26" as="geometry" />
        </mxCell>
        <mxCell id="uvN29aDNM0LQ4Qjqz4Rn-47" value="platform10 - 11" style="swimlane;fontStyle=1;align=center;verticalAlign=top;childLayout=stackLayout;horizontal=1;startSize=26;horizontalStack=0;resizeParent=1;resizeParentMax=0;resizeLast=0;collapsible=1;marginBottom=0;" vertex="1" parent="WIyWlLk6GJQsqaUBKTNV-1">
          <mxGeometry x="940" y="730" width="160" height="164" as="geometry" />
        </mxCell>
        <mxCell id="uvN29aDNM0LQ4Qjqz4Rn-48" value="- counter : int" style="text;strokeColor=none;fillColor=none;align=left;verticalAlign=top;spacingLeft=4;spacingRight=4;overflow=hidden;rotatable=0;points=[[0,0.5],[1,0.5]];portConstraint=eastwest;" vertex="1" parent="uvN29aDNM0LQ4Qjqz4Rn-47">
          <mxGeometry y="26" width="160" height="26" as="geometry" />
        </mxCell>
        <mxCell id="uvN29aDNM0LQ4Qjqz4Rn-49" value="" style="line;strokeWidth=1;fillColor=none;align=left;verticalAlign=middle;spacingTop=-1;spacingLeft=3;spacingRight=3;rotatable=0;labelPosition=right;points=[];portConstraint=eastwest;" vertex="1" parent="uvN29aDNM0LQ4Qjqz4Rn-47">
          <mxGeometry y="52" width="160" height="8" as="geometry" />
        </mxCell>
        <mxCell id="uvN29aDNM0LQ4Qjqz4Rn-50" value="+ platform10(x,y,id)" style="text;strokeColor=none;fillColor=none;align=left;verticalAlign=top;spacingLeft=4;spacingRight=4;overflow=hidden;rotatable=0;points=[[0,0.5],[1,0.5]];portConstraint=eastwest;" vertex="1" parent="uvN29aDNM0LQ4Qjqz4Rn-47">
          <mxGeometry y="60" width="160" height="26" as="geometry" />
        </mxCell>
        <mxCell id="uvN29aDNM0LQ4Qjqz4Rn-60" value="+ tick() : void" style="text;strokeColor=none;fillColor=none;align=left;verticalAlign=top;spacingLeft=4;spacingRight=4;overflow=hidden;rotatable=0;points=[[0,0.5],[1,0.5]];portConstraint=eastwest;" vertex="1" parent="uvN29aDNM0LQ4Qjqz4Rn-47">
          <mxGeometry y="86" width="160" height="26" as="geometry" />
        </mxCell>
        <mxCell id="uvN29aDNM0LQ4Qjqz4Rn-61" value="+ render(Graphics) : void" style="text;strokeColor=none;fillColor=none;align=left;verticalAlign=top;spacingLeft=4;spacingRight=4;overflow=hidden;rotatable=0;points=[[0,0.5],[1,0.5]];portConstraint=eastwest;" vertex="1" parent="uvN29aDNM0LQ4Qjqz4Rn-47">
          <mxGeometry y="112" width="160" height="26" as="geometry" />
        </mxCell>
        <mxCell id="uvN29aDNM0LQ4Qjqz4Rn-59" value="+ getBounds() : Rectangle" style="text;strokeColor=none;fillColor=none;align=left;verticalAlign=top;spacingLeft=4;spacingRight=4;overflow=hidden;rotatable=0;points=[[0,0.5],[1,0.5]];portConstraint=eastwest;" vertex="1" parent="uvN29aDNM0LQ4Qjqz4Rn-47">
          <mxGeometry y="138" width="160" height="26" as="geometry" />
        </mxCell>
        <mxCell id="uvN29aDNM0LQ4Qjqz4Rn-63" value="Extends" style="endArrow=block;endSize=16;endFill=0;html=1;" edge="1" parent="WIyWlLk6GJQsqaUBKTNV-1" source="uvN29aDNM0LQ4Qjqz4Rn-47">
          <mxGeometry x="0.8065" width="160" relative="1" as="geometry">
            <mxPoint x="900" y="720" as="sourcePoint" />
            <mxPoint x="850" y="590" as="targetPoint" />
            <Array as="points">
              <mxPoint x="1020" y="640" />
              <mxPoint x="900" y="640" />
              <mxPoint x="850" y="640" />
            </Array>
            <mxPoint as="offset" />
          </mxGeometry>
        </mxCell>
        <mxCell id="uvN29aDNM0LQ4Qjqz4Rn-65" value="" style="endArrow=none;html=1;edgeStyle=orthogonalEdgeStyle;entryX=0.656;entryY=0.008;entryDx=0;entryDy=0;entryPerimeter=0;" edge="1" parent="WIyWlLk6GJQsqaUBKTNV-1" target="uvN29aDNM0LQ4Qjqz4Rn-43">
          <mxGeometry relative="1" as="geometry">
            <mxPoint x="880" y="640" as="sourcePoint" />
            <mxPoint x="720" y="715" as="targetPoint" />
            <Array as="points">
              <mxPoint x="845" y="640" />
            </Array>
          </mxGeometry>
        </mxCell>
        <mxCell id="uvN29aDNM0LQ4Qjqz4Rn-68" value="Player" style="swimlane;fontStyle=1;align=center;verticalAlign=top;childLayout=stackLayout;horizontal=1;startSize=26;horizontalStack=0;resizeParent=1;resizeParentMax=0;resizeLast=0;collapsible=1;marginBottom=0;" vertex="1" parent="WIyWlLk6GJQsqaUBKTNV-1">
          <mxGeometry x="500" y="748" width="210" height="216" as="geometry" />
        </mxCell>
        <mxCell id="uvN29aDNM0LQ4Qjqz4Rn-69" value="- player_image : BufferedImage" style="text;strokeColor=none;fillColor=none;align=left;verticalAlign=top;spacingLeft=4;spacingRight=4;overflow=hidden;rotatable=0;points=[[0,0.5],[1,0.5]];portConstraint=eastwest;" vertex="1" parent="uvN29aDNM0LQ4Qjqz4Rn-68">
          <mxGeometry y="26" width="210" height="26" as="geometry" />
        </mxCell>
        <mxCell id="uvN29aDNM0LQ4Qjqz4Rn-75" value="- handler : Handler" style="text;strokeColor=none;fillColor=none;align=left;verticalAlign=top;spacingLeft=4;spacingRight=4;overflow=hidden;rotatable=0;points=[[0,0.5],[1,0.5]];portConstraint=eastwest;" vertex="1" parent="uvN29aDNM0LQ4Qjqz4Rn-68">
          <mxGeometry y="52" width="210" height="26" as="geometry" />
        </mxCell>
        <mxCell id="uvN29aDNM0LQ4Qjqz4Rn-70" value="" style="line;strokeWidth=1;fillColor=none;align=left;verticalAlign=middle;spacingTop=-1;spacingLeft=3;spacingRight=3;rotatable=0;labelPosition=right;points=[];portConstraint=eastwest;" vertex="1" parent="uvN29aDNM0LQ4Qjqz4Rn-68">
          <mxGeometry y="78" width="210" height="8" as="geometry" />
        </mxCell>
        <mxCell id="uvN29aDNM0LQ4Qjqz4Rn-71" value="+ Player(x,y,id,handler)" style="text;strokeColor=none;fillColor=none;align=left;verticalAlign=top;spacingLeft=4;spacingRight=4;overflow=hidden;rotatable=0;points=[[0,0.5],[1,0.5]];portConstraint=eastwest;" vertex="1" parent="uvN29aDNM0LQ4Qjqz4Rn-68">
          <mxGeometry y="86" width="210" height="26" as="geometry" />
        </mxCell>
        <mxCell id="uvN29aDNM0LQ4Qjqz4Rn-76" value="+ tick() : void" style="text;strokeColor=none;fillColor=none;align=left;verticalAlign=top;spacingLeft=4;spacingRight=4;overflow=hidden;rotatable=0;points=[[0,0.5],[1,0.5]];portConstraint=eastwest;" vertex="1" parent="uvN29aDNM0LQ4Qjqz4Rn-68">
          <mxGeometry y="112" width="210" height="26" as="geometry" />
        </mxCell>
        <mxCell id="uvN29aDNM0LQ4Qjqz4Rn-77" value="- collision() : void" style="text;strokeColor=none;fillColor=none;align=left;verticalAlign=top;spacingLeft=4;spacingRight=4;overflow=hidden;rotatable=0;points=[[0,0.5],[1,0.5]];portConstraint=eastwest;" vertex="1" parent="uvN29aDNM0LQ4Qjqz4Rn-68">
          <mxGeometry y="138" width="210" height="26" as="geometry" />
        </mxCell>
        <mxCell id="uvN29aDNM0LQ4Qjqz4Rn-78" value="+ render(Graphics) : void" style="text;strokeColor=none;fillColor=none;align=left;verticalAlign=top;spacingLeft=4;spacingRight=4;overflow=hidden;rotatable=0;points=[[0,0.5],[1,0.5]];portConstraint=eastwest;" vertex="1" parent="uvN29aDNM0LQ4Qjqz4Rn-68">
          <mxGeometry y="164" width="210" height="26" as="geometry" />
        </mxCell>
        <mxCell id="uvN29aDNM0LQ4Qjqz4Rn-79" value="+ getBounds() : Rectangle" style="text;strokeColor=none;fillColor=none;align=left;verticalAlign=top;spacingLeft=4;spacingRight=4;overflow=hidden;rotatable=0;points=[[0,0.5],[1,0.5]];portConstraint=eastwest;" vertex="1" parent="uvN29aDNM0LQ4Qjqz4Rn-68">
          <mxGeometry y="190" width="210" height="26" as="geometry" />
        </mxCell>
        <mxCell id="uvN29aDNM0LQ4Qjqz4Rn-72" value="" style="endArrow=none;html=1;edgeStyle=orthogonalEdgeStyle;" edge="1" parent="WIyWlLk6GJQsqaUBKTNV-1" source="uvN29aDNM0LQ4Qjqz4Rn-68">
          <mxGeometry relative="1" as="geometry">
            <mxPoint x="450" y="790" as="sourcePoint" />
            <mxPoint x="850" y="640" as="targetPoint" />
            <Array as="points">
              <mxPoint x="605" y="640" />
            </Array>
          </mxGeometry>
        </mxCell>
        <mxCell id="uvN29aDNM0LQ4Qjqz4Rn-80" value="Use" style="endArrow=open;endSize=12;dashed=1;html=1;exitX=0;exitY=0.5;exitDx=0;exitDy=0;entryX=0.5;entryY=0;entryDx=0;entryDy=0;" edge="1" parent="WIyWlLk6GJQsqaUBKTNV-1" source="zkfFHV4jXpPFQw0GAbJ--5" target="uvN29aDNM0LQ4Qjqz4Rn-81">
          <mxGeometry width="160" relative="1" as="geometry">
            <mxPoint x="120" y="320" as="sourcePoint" />
            <mxPoint x="151.33331298828125" y="440" as="targetPoint" />
          </mxGeometry>
        </mxCell>
        <mxCell id="uvN29aDNM0LQ4Qjqz4Rn-81" value="Window" style="swimlane;fontStyle=1;align=center;verticalAlign=top;childLayout=stackLayout;horizontal=1;startSize=26;horizontalStack=0;resizeParent=1;resizeParentMax=0;resizeLast=0;collapsible=1;marginBottom=0;" vertex="1" parent="WIyWlLk6GJQsqaUBKTNV-1">
          <mxGeometry x="-15" y="366" width="200" height="52" as="geometry" />
        </mxCell>
        <mxCell id="uvN29aDNM0LQ4Qjqz4Rn-84" value="Window(width,height,title,Game)" style="text;strokeColor=none;fillColor=none;align=left;verticalAlign=top;spacingLeft=4;spacingRight=4;overflow=hidden;rotatable=0;points=[[0,0.5],[1,0.5]];portConstraint=eastwest;" vertex="1" parent="uvN29aDNM0LQ4Qjqz4Rn-81">
          <mxGeometry y="26" width="200" height="26" as="geometry" />
        </mxCell>
        <mxCell id="uvN29aDNM0LQ4Qjqz4Rn-85" value="Extends" style="endArrow=block;endSize=16;endFill=0;html=1;exitX=0.5;exitY=0;exitDx=0;exitDy=0;" edge="1" parent="WIyWlLk6GJQsqaUBKTNV-1" source="uvN29aDNM0LQ4Qjqz4Rn-81" target="uvN29aDNM0LQ4Qjqz4Rn-29">
          <mxGeometry x="0.4872" y="5" width="160" relative="1" as="geometry">
            <mxPoint x="20" y="460" as="sourcePoint" />
            <mxPoint x="180" y="460" as="targetPoint" />
            <mxPoint as="offset" />
          </mxGeometry>
        </mxCell>
        <mxCell id="uvN29aDNM0LQ4Qjqz4Rn-86" value="" style="endArrow=open;endFill=1;endSize=12;html=1;exitX=0.142;exitY=0.009;exitDx=0;exitDy=0;exitPerimeter=0;" edge="1" parent="WIyWlLk6GJQsqaUBKTNV-1" source="uvN29aDNM0LQ4Qjqz4Rn-68">
          <mxGeometry width="160" relative="1" as="geometry">
            <mxPoint x="510" y="745" as="sourcePoint" />
            <mxPoint x="530" y="250" as="targetPoint" />
            <Array as="points">
              <mxPoint x="530" y="620" />
              <mxPoint x="530" y="460" />
              <mxPoint x="530" y="330" />
            </Array>
          </mxGeometry>
        </mxCell>
        <mxCell id="uvN29aDNM0LQ4Qjqz4Rn-87" value="Use" style="endArrow=open;endSize=12;dashed=1;html=1;entryX=0;entryY=0;entryDx=0;entryDy=0;" edge="1" parent="WIyWlLk6GJQsqaUBKTNV-1" target="uvN29aDNM0LQ4Qjqz4Rn-68">
          <mxGeometry x="-0.5944" width="160" relative="1" as="geometry">
            <mxPoint x="420" y="290" as="sourcePoint" />
            <mxPoint x="610" y="590" as="targetPoint" />
            <Array as="points">
              <mxPoint x="420" y="670" />
              <mxPoint x="500" y="670" />
            </Array>
            <mxPoint y="1" as="offset" />
          </mxGeometry>
        </mxCell>
        <mxCell id="uvN29aDNM0LQ4Qjqz4Rn-90" value="SpriteSheet" style="swimlane;fontStyle=1;align=center;verticalAlign=top;childLayout=stackLayout;horizontal=1;startSize=26;horizontalStack=0;resizeParent=1;resizeParentMax=0;resizeLast=0;collapsible=1;marginBottom=0;" vertex="1" parent="WIyWlLk6GJQsqaUBKTNV-1">
          <mxGeometry x="100" y="830" width="280" height="112" as="geometry" />
        </mxCell>
        <mxCell id="uvN29aDNM0LQ4Qjqz4Rn-91" value="- sprite : BufferedImage" style="text;strokeColor=none;fillColor=none;align=left;verticalAlign=top;spacingLeft=4;spacingRight=4;overflow=hidden;rotatable=0;points=[[0,0.5],[1,0.5]];portConstraint=eastwest;" vertex="1" parent="uvN29aDNM0LQ4Qjqz4Rn-90">
          <mxGeometry y="26" width="280" height="26" as="geometry" />
        </mxCell>
        <mxCell id="uvN29aDNM0LQ4Qjqz4Rn-92" value="" style="line;strokeWidth=1;fillColor=none;align=left;verticalAlign=middle;spacingTop=-1;spacingLeft=3;spacingRight=3;rotatable=0;labelPosition=right;points=[];portConstraint=eastwest;" vertex="1" parent="uvN29aDNM0LQ4Qjqz4Rn-90">
          <mxGeometry y="52" width="280" height="8" as="geometry" />
        </mxCell>
        <mxCell id="uvN29aDNM0LQ4Qjqz4Rn-94" value="+ item: attribute" style="text;strokeColor=none;fillColor=none;align=left;verticalAlign=top;spacingLeft=4;spacingRight=4;overflow=hidden;rotatable=0;points=[[0,0.5],[1,0.5]];portConstraint=eastwest;" vertex="1" parent="uvN29aDNM0LQ4Qjqz4Rn-90">
          <mxGeometry y="60" width="280" height="26" as="geometry" />
        </mxCell>
        <mxCell id="uvN29aDNM0LQ4Qjqz4Rn-93" value="+ grabImage(col,row,width,height) : BufferedImage" style="text;strokeColor=none;fillColor=none;align=left;verticalAlign=top;spacingLeft=4;spacingRight=4;overflow=hidden;rotatable=0;points=[[0,0.5],[1,0.5]];portConstraint=eastwest;" vertex="1" parent="uvN29aDNM0LQ4Qjqz4Rn-90">
          <mxGeometry y="86" width="280" height="26" as="geometry" />
        </mxCell>
        <mxCell id="uvN29aDNM0LQ4Qjqz4Rn-95" value="" style="endArrow=diamondThin;endFill=0;endSize=24;html=1;entryX=0;entryY=0.5;entryDx=0;entryDy=0;exitX=1.002;exitY=0.142;exitDx=0;exitDy=0;exitPerimeter=0;" edge="1" parent="WIyWlLk6GJQsqaUBKTNV-1" source="uvN29aDNM0LQ4Qjqz4Rn-90" target="uvN29aDNM0LQ4Qjqz4Rn-71">
          <mxGeometry width="160" relative="1" as="geometry">
            <mxPoint x="140" y="730" as="sourcePoint" />
            <mxPoint x="300" y="730" as="targetPoint" />
          </mxGeometry>
        </mxCell>
        <mxCell id="uvN29aDNM0LQ4Qjqz4Rn-96" value="" style="endArrow=diamondThin;endFill=0;endSize=24;html=1;entryX=0;entryY=0.5;entryDx=0;entryDy=0;exitX=1;exitY=0.25;exitDx=0;exitDy=0;" edge="1" parent="WIyWlLk6GJQsqaUBKTNV-1" source="uvN29aDNM0LQ4Qjqz4Rn-35" target="uvN29aDNM0LQ4Qjqz4Rn-0">
          <mxGeometry width="160" relative="1" as="geometry">
            <mxPoint x="63" y="172" as="sourcePoint" />
            <mxPoint x="180" y="290" as="targetPoint" />
          </mxGeometry>
        </mxCell>
        <mxCell id="uvN29aDNM0LQ4Qjqz4Rn-98" value="Use" style="endArrow=open;endSize=12;dashed=1;html=1;entryX=0.073;entryY=-0.012;entryDx=0;entryDy=0;entryPerimeter=0;exitX=1;exitY=0.5;exitDx=0;exitDy=0;" edge="1" parent="WIyWlLk6GJQsqaUBKTNV-1" source="zkfFHV4jXpPFQw0GAbJ--5" target="uvN29aDNM0LQ4Qjqz4Rn-23">
          <mxGeometry width="160" relative="1" as="geometry">
            <mxPoint x="390" y="290" as="sourcePoint" />
            <mxPoint x="660" y="400" as="targetPoint" />
            <Array as="points">
              <mxPoint x="470" y="285" />
              <mxPoint x="470" y="435" />
            </Array>
          </mxGeometry>
        </mxCell>
        <mxCell id="uvN29aDNM0LQ4Qjqz4Rn-99" value="" style="endArrow=diamondThin;endFill=1;endSize=24;html=1;entryX=1;entryY=0.5;entryDx=0;entryDy=0;exitX=-0.011;exitY=0.064;exitDx=0;exitDy=0;exitPerimeter=0;" edge="1" parent="WIyWlLk6GJQsqaUBKTNV-1" source="zkfFHV4jXpPFQw0GAbJ--17" target="zkfFHV4jXpPFQw0GAbJ--2">
          <mxGeometry width="160" relative="1" as="geometry">
            <mxPoint x="420" y="360" as="sourcePoint" />
            <mxPoint x="580" y="360" as="targetPoint" />
          </mxGeometry>
        </mxCell>
        <mxCell id="uvN29aDNM0LQ4Qjqz4Rn-89" value="Use" style="endArrow=open;endSize=12;dashed=1;html=1;entryX=0.25;entryY=0;entryDx=0;entryDy=0;" edge="1" parent="WIyWlLk6GJQsqaUBKTNV-1" target="uvN29aDNM0LQ4Qjqz4Rn-47">
          <mxGeometry x="0.7059" width="160" relative="1" as="geometry">
            <mxPoint x="420" y="380" as="sourcePoint" />
            <mxPoint x="640" y="440" as="targetPoint" />
            <Array as="points">
              <mxPoint x="420" y="510" />
              <mxPoint x="420" y="670" />
              <mxPoint x="700" y="670" />
              <mxPoint x="980" y="670" />
            </Array>
            <mxPoint x="-1" as="offset" />
          </mxGeometry>
        </mxCell>
        <mxCell id="uvN29aDNM0LQ4Qjqz4Rn-88" value="Use" style="endArrow=open;endSize=12;dashed=1;html=1;" edge="1" parent="WIyWlLk6GJQsqaUBKTNV-1">
          <mxGeometry x="0.5313" width="160" relative="1" as="geometry">
            <mxPoint x="420" y="290" as="sourcePoint" />
            <mxPoint x="790" y="762" as="targetPoint" />
            <Array as="points">
              <mxPoint x="420" y="670" />
              <mxPoint x="470" y="670" />
              <mxPoint x="790" y="670" />
            </Array>
            <mxPoint as="offset" />
          </mxGeometry>
        </mxCell>
        <mxCell id="uvN29aDNM0LQ4Qjqz4Rn-101" value="Template methods?" style="text;strokeColor=none;fillColor=none;align=left;verticalAlign=top;spacingLeft=4;spacingRight=4;overflow=hidden;rotatable=0;points=[[0,0.5],[1,0.5]];portConstraint=eastwest;fontStyle=1;fontSize=16;fontColor=#CC0000;" vertex="1" parent="WIyWlLk6GJQsqaUBKTNV-1">
          <mxGeometry x="1110" y="498" width="170" height="26" as="geometry" />
        </mxCell>
        <mxCell id="uvN29aDNM0LQ4Qjqz4Rn-102" value="" style="endArrow=open;endFill=1;endSize=12;html=1;fontSize=16;exitX=0;exitY=0.5;exitDx=0;exitDy=0;entryX=1;entryY=0.5;entryDx=0;entryDy=0;" edge="1" parent="WIyWlLk6GJQsqaUBKTNV-1" source="uvN29aDNM0LQ4Qjqz4Rn-101" target="uvN29aDNM0LQ4Qjqz4Rn-20">
          <mxGeometry width="160" relative="1" as="geometry">
            <mxPoint x="850" y="600" as="sourcePoint" />
            <mxPoint x="1010" y="600" as="targetPoint" />
          </mxGeometry>
        </mxCell>
        <mxCell id="uvN29aDNM0LQ4Qjqz4Rn-103" value="&lt;b&gt;&lt;font color=&quot;#cc0000&quot;&gt;Mycket dupplicerad kod i alla platforms...&lt;/font&gt;&lt;/b&gt;" style="text;html=1;strokeColor=none;fillColor=none;align=center;verticalAlign=middle;whiteSpace=wrap;rounded=0;fontSize=16;" vertex="1" parent="WIyWlLk6GJQsqaUBKTNV-1">
          <mxGeometry x="810" y="942" width="170" height="20" as="geometry" />
        </mxCell>
        <mxCell id="uvN29aDNM0LQ4Qjqz4Rn-105" value="Hur skiljer sig platform 1-9 sig frÃ¥n 10-11? GÃ¶ra en superklass fÃ¶r code reuse?" style="text;html=1;strokeColor=none;fillColor=none;align=center;verticalAlign=middle;whiteSpace=wrap;rounded=0;fontSize=16;fontColor=#CC0000;" vertex="1" parent="WIyWlLk6GJQsqaUBKTNV-1">
          <mxGeometry x="880" y="1000" width="210" height="30" as="geometry" />
        </mxCell>
        <mxCell id="uvN29aDNM0LQ4Qjqz4Rn-106" value="KeyInput" style="swimlane;fontStyle=1;align=center;verticalAlign=top;childLayout=stackLayout;horizontal=1;startSize=26;horizontalStack=0;resizeParent=1;resizeParentMax=0;resizeLast=0;collapsible=1;marginBottom=0;fontSize=16;" vertex="1" parent="WIyWlLk6GJQsqaUBKTNV-1">
          <mxGeometry x="870" y="140" width="190" height="138" as="geometry" />
        </mxCell>
        <mxCell id="uvN29aDNM0LQ4Qjqz4Rn-107" value="- handler : Handler" style="text;strokeColor=none;fillColor=none;align=left;verticalAlign=top;spacingLeft=4;spacingRight=4;overflow=hidden;rotatable=0;points=[[0,0.5],[1,0.5]];portConstraint=eastwest;" vertex="1" parent="uvN29aDNM0LQ4Qjqz4Rn-106">
          <mxGeometry y="26" width="190" height="26" as="geometry" />
        </mxCell>
        <mxCell id="uvN29aDNM0LQ4Qjqz4Rn-108" value="" style="line;strokeWidth=1;fillColor=none;align=left;verticalAlign=middle;spacingTop=-1;spacingLeft=3;spacingRight=3;rotatable=0;labelPosition=right;points=[];portConstraint=eastwest;" vertex="1" parent="uvN29aDNM0LQ4Qjqz4Rn-106">
          <mxGeometry y="52" width="190" height="8" as="geometry" />
        </mxCell>
        <mxCell id="uvN29aDNM0LQ4Qjqz4Rn-109" value="+ KeyInput(Handler)" style="text;strokeColor=none;fillColor=none;align=left;verticalAlign=top;spacingLeft=4;spacingRight=4;overflow=hidden;rotatable=0;points=[[0,0.5],[1,0.5]];portConstraint=eastwest;" vertex="1" parent="uvN29aDNM0LQ4Qjqz4Rn-106">
          <mxGeometry y="60" width="190" height="26" as="geometry" />
        </mxCell>
        <mxCell id="uvN29aDNM0LQ4Qjqz4Rn-110" value="+ keyPressed(Keyevent): void" style="text;strokeColor=none;fillColor=none;align=left;verticalAlign=top;spacingLeft=4;spacingRight=4;overflow=hidden;rotatable=0;points=[[0,0.5],[1,0.5]];portConstraint=eastwest;fontSize=13;fontColor=#000000;" vertex="1" parent="uvN29aDNM0LQ4Qjqz4Rn-106">
          <mxGeometry y="86" width="190" height="26" as="geometry" />
        </mxCell>
        <mxCell id="uvN29aDNM0LQ4Qjqz4Rn-111" value="+ keyReleased(KeyEvent): void" style="text;strokeColor=none;fillColor=none;align=left;verticalAlign=top;spacingLeft=4;spacingRight=4;overflow=hidden;rotatable=0;points=[[0,0.5],[1,0.5]];portConstraint=eastwest;fontSize=13;fontColor=#000000;" vertex="1" parent="uvN29aDNM0LQ4Qjqz4Rn-106">
          <mxGeometry y="112" width="190" height="26" as="geometry" />
        </mxCell>
        <mxCell id="uvN29aDNM0LQ4Qjqz4Rn-113" value="KeyAdapter" style="html=1;fontSize=13;fontColor=#000000;align=left;fontStyle=1" vertex="1" parent="WIyWlLk6GJQsqaUBKTNV-1">
          <mxGeometry x="910" width="110" height="50" as="geometry" />
        </mxCell>
        <mxCell id="uvN29aDNM0LQ4Qjqz4Rn-114" value="Extends" style="endArrow=block;endSize=16;endFill=0;html=1;fontSize=13;fontColor=#000000;entryX=0.5;entryY=1;entryDx=0;entryDy=0;exitX=0.5;exitY=0;exitDx=0;exitDy=0;" edge="1" parent="WIyWlLk6GJQsqaUBKTNV-1" source="uvN29aDNM0LQ4Qjqz4Rn-106" target="uvN29aDNM0LQ4Qjqz4Rn-113">
          <mxGeometry width="160" relative="1" as="geometry">
            <mxPoint x="780" y="140" as="sourcePoint" />
            <mxPoint x="940" y="140" as="targetPoint" />
          </mxGeometry>
        </mxCell>
        <mxCell id="uvN29aDNM0LQ4Qjqz4Rn-115" value="" style="endArrow=open;endFill=1;endSize=12;html=1;fontSize=13;fontColor=#000000;entryX=1;entryY=0;entryDx=0;entryDy=0;exitX=0;exitY=0.5;exitDx=0;exitDy=0;" edge="1" parent="WIyWlLk6GJQsqaUBKTNV-1" source="uvN29aDNM0LQ4Qjqz4Rn-107" target="zkfFHV4jXpPFQw0GAbJ--17">
          <mxGeometry width="160" relative="1" as="geometry">
            <mxPoint x="780" y="230" as="sourcePoint" />
            <mxPoint x="940" y="230" as="targetPoint" />
            <Array as="points">
              <mxPoint x="850" y="179" />
              <mxPoint x="850" y="90" />
            </Array>
          </mxGeometry>
        </mxCell>
        <mxCell id="uvN29aDNM0LQ4Qjqz4Rn-117" style="edgeStyle=orthogonalEdgeStyle;rounded=0;orthogonalLoop=1;jettySize=auto;html=1;entryX=1.021;entryY=0.149;entryDx=0;entryDy=0;entryPerimeter=0;fontSize=16;fontColor=#990000;" edge="1" parent="WIyWlLk6GJQsqaUBKTNV-1" target="uvN29aDNM0LQ4Qjqz4Rn-111">
          <mxGeometry relative="1" as="geometry">
            <mxPoint x="1275" y="240" as="sourcePoint" />
            <Array as="points">
              <mxPoint x="1275" y="256" />
            </Array>
          </mxGeometry>
        </mxCell>
        <mxCell id="uvN29aDNM0LQ4Qjqz4Rn-116" value="&lt;b&gt;&lt;font color=&quot;#cc0000&quot;&gt;HÃ¤r loopar man igenom listan med GameObjects fÃ¶r att hitta player, kan detta gÃ¶ras effektivare?&amp;nbsp;&lt;/font&gt;&lt;/b&gt;" style="text;html=1;strokeColor=none;fillColor=none;align=center;verticalAlign=middle;whiteSpace=wrap;rounded=0;fontSize=16;fontColor=#990000;" vertex="1" parent="WIyWlLk6GJQsqaUBKTNV-1">
          <mxGeometry x="1160" y="190" width="230" height="20" as="geometry" />
        </mxCell>
        <mxCell id="uvN29aDNM0LQ4Qjqz4Rn-118" value="BufferedImageLoader" style="swimlane;fontStyle=1;align=center;verticalAlign=top;childLayout=stackLayout;horizontal=1;startSize=26;horizontalStack=0;resizeParent=1;resizeParentMax=0;resizeLast=0;collapsible=1;marginBottom=0;fontSize=13;" vertex="1" parent="WIyWlLk6GJQsqaUBKTNV-1">
          <mxGeometry x="-260" y="264" width="210" height="86" as="geometry" />
        </mxCell>
        <mxCell id="uvN29aDNM0LQ4Qjqz4Rn-119" value="image : BufferedImage" style="text;strokeColor=none;fillColor=none;align=left;verticalAlign=top;spacingLeft=4;spacingRight=4;overflow=hidden;rotatable=0;points=[[0,0.5],[1,0.5]];portConstraint=eastwest;" vertex="1" parent="uvN29aDNM0LQ4Qjqz4Rn-118">
          <mxGeometry y="26" width="210" height="26" as="geometry" />
        </mxCell>
        <mxCell id="uvN29aDNM0LQ4Qjqz4Rn-120" value="" style="line;strokeWidth=1;fillColor=none;align=left;verticalAlign=middle;spacingTop=-1;spacingLeft=3;spacingRight=3;rotatable=0;labelPosition=right;points=[];portConstraint=eastwest;" vertex="1" parent="uvN29aDNM0LQ4Qjqz4Rn-118">
          <mxGeometry y="52" width="210" height="8" as="geometry" />
        </mxCell>
        <mxCell id="uvN29aDNM0LQ4Qjqz4Rn-121" value="+ loadImage(String) : BufferedImage" style="text;strokeColor=none;fillColor=none;align=left;verticalAlign=top;spacingLeft=4;spacingRight=4;overflow=hidden;rotatable=0;points=[[0,0.5],[1,0.5]];portConstraint=eastwest;" vertex="1" parent="uvN29aDNM0LQ4Qjqz4Rn-118">
          <mxGeometry y="60" width="210" height="26" as="geometry" />
        </mxCell>
        <mxCell id="uvN29aDNM0LQ4Qjqz4Rn-122" value="Use" style="endArrow=open;endSize=12;dashed=1;html=1;fontSize=13;fontColor=#000000;entryX=1;entryY=0.25;entryDx=0;entryDy=0;exitX=0;exitY=0.5;exitDx=0;exitDy=0;" edge="1" parent="WIyWlLk6GJQsqaUBKTNV-1" source="zkfFHV4jXpPFQw0GAbJ--5" target="uvN29aDNM0LQ4Qjqz4Rn-118">
          <mxGeometry width="160" relative="1" as="geometry">
            <mxPoint x="110" y="300" as="sourcePoint" />
            <mxPoint x="270" y="300" as="targetPoint" />
          </mxGeometry>
        </mxCell>
        <mxCell id="uvN29aDNM0LQ4Qjqz4Rn-124" style="edgeStyle=orthogonalEdgeStyle;rounded=0;orthogonalLoop=1;jettySize=auto;html=1;fontSize=13;fontColor=#000000;" edge="1" parent="WIyWlLk6GJQsqaUBKTNV-1" source="uvN29aDNM0LQ4Qjqz4Rn-123">
          <mxGeometry relative="1" as="geometry">
            <mxPoint x="-270" y="288" as="targetPoint" />
          </mxGeometry>
        </mxCell>
        <mxCell id="uvN29aDNM0LQ4Qjqz4Rn-123" value="&lt;font color=&quot;#cc0000&quot; style=&quot;font-size: 15px&quot;&gt;HÃ¤r har man gett ansvaret att hÃ¤mta bilder till en klass. FÃ¶ljer SRP. Men kanske Ã¶verflÃ¶digt?&lt;/font&gt;" style="text;html=1;strokeColor=none;fillColor=none;align=center;verticalAlign=middle;whiteSpace=wrap;rounded=0;fontSize=13;fontColor=#000000;fontStyle=1" vertex="1" parent="WIyWlLk6GJQsqaUBKTNV-1">
          <mxGeometry x="-530" y="278" width="164" height="20" as="geometry" />
        </mxCell>
        <mxCell id="uvN29aDNM0LQ4Qjqz4Rn-126" style="edgeStyle=orthogonalEdgeStyle;rounded=0;orthogonalLoop=1;jettySize=auto;html=1;entryX=0.082;entryY=-0.056;entryDx=0;entryDy=0;entryPerimeter=0;fontSize=15;fontColor=#CC0000;" edge="1" parent="WIyWlLk6GJQsqaUBKTNV-1" source="uvN29aDNM0LQ4Qjqz4Rn-125" target="uvN29aDNM0LQ4Qjqz4Rn-35">
          <mxGeometry relative="1" as="geometry" />
        </mxCell>
        <mxCell id="uvN29aDNM0LQ4Qjqz4Rn-125" value="&lt;font style=&quot;font-size: 15px&quot;&gt;Denna klassen verkar inte anvÃ¤ndas. Men om man skulle vilja skapa en meny senare kanske det kan vara bra enligt OCP?&amp;nbsp;&lt;/font&gt;" style="text;html=1;strokeColor=none;fillColor=none;align=center;verticalAlign=middle;whiteSpace=wrap;rounded=0;fontSize=15;fontColor=#CC0000;fontStyle=1" vertex="1" parent="WIyWlLk6GJQsqaUBKTNV-1">
          <mxGeometry x="-580" y="70" width="138" height="20" as="geometry" />
        </mxCell>
      </root>
    </mxGraphModel>
  </diagram>
</mxfile>
